# xmcd
#
# Track frame offsets:
#	150
#	11840
#	27525
#	40670
#	57237
#	73035
#	100865
#	114580
#	128925
#	149812
#	163215
#	177132
#	195122
#	209790
#
# Disc length: 2951 seconds
#
# Revision: 2
# Processed by: cddbd v1.5.2PL0 Copyright (c) Steve Scherf et al.
# Submitted via: audiograbber 1.83.01
#
DISCID=d20b850e
DTITLE=Διάφοροι - Αθήνα μεγάλοι Ελληνες συνθέτες
DYEAR=1900
DGENRE=
TTITLE0=Αθήνα
TTITLE1=Σ'ακολουθώ
TTITLE2=Βροχή καί σήμερα
TTITLE3=Ηρθε ένας φίλος
TTITLE4=Μιά Παναγιά
TTITLE5=Λένγκω
TTITLE6=Ενα πρωινό
TTITLE7=Παραπονεμένα λόγια
TTITLE8=Το τρένο φεύγει στις οκτώ
TTITLE9=Χρυσοπράσινο φύλλο
TTITLE10=Πειραιώτισσα
TTITLE11=Σαββατόβραδο στην Καισαριανή
TTITLE12=Βρέχει ο Θεός
TTITLE13=Δελφίνι δελφινάκι
EXTD=
EXTT0=
EXTT1=
EXTT2=
EXTT3=
EXTT4=
EXTT5=
EXTT6=
EXTT7=
EXTT8=
EXTT9=
EXTT10=
EXTT11=
EXTT12=
EXTT13=
PLAYORDER=
